<?xml version="1.0" encoding="UTF-8"?>
<svg version="1.1" xmlns="http://www.w3.org/2000/svg" width="128" height="128">
<path d="M0 0 C1.16337891 0.00322266 2.32675781 0.00644531 3.52539062 0.00976562 C4.74033203 0.01814453 5.95527344 0.02652344 7.20703125 0.03515625 C8.43357422 0.03966797 9.66011719 0.04417969 10.92382812 0.04882812 C13.95577793 0.0606256 16.98763031 0.07708704 20.01953125 0.09765625 C20.10678784 4.32669245 20.16001015 8.55549637 20.20703125 12.78515625 C20.23216797 13.98333984 20.25730469 15.18152344 20.28320312 16.41601562 C20.29287109 17.57294922 20.30253906 18.72988281 20.3125 19.921875 C20.32821045 20.98494873 20.3439209 22.04802246 20.36010742 23.14331055 C19.96461473 26.57403245 19.12519422 28.37510795 17.01953125 31.09765625 C12.86681828 33.90086976 8.47964736 33.42858276 3.64453125 33.41015625 C2.80664062 33.42626953 1.96875 33.44238281 1.10546875 33.45898438 C-3.99499364 33.46299417 -7.58120607 32.96765142 -11.98046875 30.09765625 C-13.97450921 26.10957533 -13.25305633 21.10770098 -13.29296875 16.72265625 C-13.32197266 15.66820313 -13.35097656 14.61375 -13.38085938 13.52734375 C-13.38923828 12.5115625 -13.39761719 11.49578125 -13.40625 10.44921875 C-13.42083252 9.51932129 -13.43541504 8.58942383 -13.45043945 7.63134766 C-12.83657665 4.32190966 -11.57580992 3.17310815 -8.98046875 1.09765625 C-5.74295197 0.01848399 -3.40295104 -0.01659976 0 0 Z " fill="#4048C4" transform="translate(26.98046875,81.90234375)"/>
<path d="M0 0 C1.24716797 0.01289062 2.49433594 0.02578125 3.77929688 0.0390625 C5.07287109 0.07257812 6.36644531 0.10609375 7.69921875 0.140625 C9.01212891 0.15867188 10.32503906 0.17671875 11.67773438 0.1953125 C14.91480363 0.24239714 18.15038928 0.30815458 21.38671875 0.390625 C21.50305808 4.61955968 21.57401827 8.84808174 21.63671875 13.078125 C21.68699219 14.87540039 21.68699219 14.87540039 21.73828125 16.70898438 C21.75117187 17.86591797 21.7640625 19.02285156 21.77734375 20.21484375 C21.79829102 21.27791748 21.81923828 22.34099121 21.84082031 23.4362793 C21.27591081 27.11153194 19.94165572 28.74333734 17.38671875 31.390625 C13.53056506 33.31870185 8.81622042 32.66251873 4.57421875 32.703125 C3.07665039 32.74663086 3.07665039 32.74663086 1.54882812 32.79101562 C-2.63205323 32.82722579 -5.87074269 32.68892541 -9.7734375 31.12109375 C-12.85040386 26.5546405 -12.33324144 21.75904136 -12.23828125 16.390625 C-12.25761719 15.2975 -12.27695313 14.204375 -12.296875 13.078125 C-12.29042969 12.02625 -12.28398437 10.974375 -12.27734375 9.890625 C-12.2717041 8.9315625 -12.26606445 7.9725 -12.26025391 6.984375 C-11.61328125 4.390625 -11.61328125 4.390625 -9.48510742 2.07128906 C-6.02811416 0.04817067 -3.9843518 -0.07277355 0 0 Z " fill="#26AF4F" transform="translate(25.61328125,48.609375)"/>
<path d="M0 0 C1.3602832 -0.01836914 1.3602832 -0.01836914 2.74804688 -0.03710938 C3.62396484 -0.03904297 4.49988281 -0.04097656 5.40234375 -0.04296875 C6.59911743 -0.04913208 6.59911743 -0.04913208 7.82006836 -0.05541992 C10.36230505 0.21997752 11.91241569 0.81203 14.0625 2.1875 C17.10254828 6.74757242 16.43093753 11.2601801 16.4375 16.625 C16.46199219 17.67494141 16.48648438 18.72488281 16.51171875 19.80664062 C16.51751953 21.32354492 16.51751953 21.32354492 16.5234375 22.87109375 C16.53165527 23.79462646 16.53987305 24.71815918 16.54833984 25.66967773 C15.89265333 29.06771544 14.87815092 30.19573877 12.0625 32.1875 C8.94628906 32.64160156 8.94628906 32.64160156 5.328125 32.578125 C4.03261719 32.56523438 2.73710938 32.55234375 1.40234375 32.5390625 C0.03905176 32.50564366 -1.32422949 32.47178391 -2.6875 32.4375 C-4.06638064 32.41742707 -5.44528912 32.39917767 -6.82421875 32.3828125 C-10.19601744 32.33565448 -13.56640687 32.26984538 -16.9375 32.1875 C-17.05383933 27.95856532 -17.12479952 23.73004326 -17.1875 19.5 C-17.22101562 18.30181641 -17.25453125 17.10363281 -17.2890625 15.86914062 C-17.30195312 14.71220703 -17.31484375 13.55527344 -17.328125 12.36328125 C-17.34907227 11.30020752 -17.37001953 10.23713379 -17.39160156 9.1418457 C-16.82335953 5.4449119 -15.55082218 3.81704483 -12.9375 1.1875 C-8.63687981 -0.24604006 -4.5044459 0.00318786 0 0 Z " fill="#FD7F28" transform="translate(64.9375,14.8125)"/>
<path d="M0 0 C1.11503906 0.00644531 2.23007813 0.01289062 3.37890625 0.01953125 C4.53777344 0.03628906 5.69664063 0.05304687 6.890625 0.0703125 C8.65212891 0.08384766 8.65212891 0.08384766 10.44921875 0.09765625 C13.34656036 0.12121187 16.24348941 0.15410598 19.140625 0.1953125 C19.2863983 4.23659702 19.37485681 8.27720156 19.453125 12.3203125 C19.49501953 13.46242188 19.53691406 14.60453125 19.58007812 15.78125 C19.7182195 25.28537633 19.7182195 25.28537633 16.74609375 28.9375 C12.95929868 32.21901057 11.19314038 32.31692665 6.2578125 32.29296875 C5.09121094 32.28974609 3.92460938 32.28652344 2.72265625 32.28320312 C1.49933594 32.27482422 0.27601562 32.26644531 -0.984375 32.2578125 C-2.21542969 32.25330078 -3.44648437 32.24878906 -4.71484375 32.24414062 C-7.76306892 32.2323258 -10.81119814 32.21585278 -13.859375 32.1953125 C-13.97605714 28.32056793 -14.04678731 24.44627854 -14.109375 20.5703125 C-14.14289062 19.47589844 -14.17640625 18.38148437 -14.2109375 17.25390625 C-14.28735753 10.94925398 -14.30430658 6.87336986 -9.859375 2.1953125 C-6.54354888 0.073622 -3.89378686 -0.03973252 0 0 Z " fill="#03A2E6" transform="translate(61.859375,48.8046875)"/>
<path d="M0 0 C3.89569135 -0.08732726 7.79112982 -0.14050185 11.6875 -0.1875 C12.79029297 -0.21263672 13.89308594 -0.23777344 15.02929688 -0.26367188 C16.09599609 -0.27333984 17.16269531 -0.28300781 18.26171875 -0.29296875 C19.24100342 -0.3086792 20.22028809 -0.32438965 21.22924805 -0.34057617 C25.70559878 0.20964933 29.13528095 2.56233714 32 6 C33.01973129 9.05919388 33.11533602 11.12418025 33.09765625 14.32421875 C33.09443359 15.35224609 33.09121094 16.38027344 33.08789062 17.43945312 C33.07532227 19.04723633 33.07532227 19.04723633 33.0625 20.6875 C33.05798828 21.77095703 33.05347656 22.85441406 33.04882812 23.97070312 C33.03703743 26.64719085 33.02058063 29.32356777 33 32 C28.60438961 32.11629782 24.20917571 32.18728634 19.8125 32.25 C18.56662109 32.28351562 17.32074219 32.31703125 16.03710938 32.3515625 C14.83505859 32.36445312 13.63300781 32.37734375 12.39453125 32.390625 C11.28956299 32.41157227 10.18459473 32.43251953 9.04614258 32.45410156 C5.30719716 31.8967209 3.68333199 30.6060942 1 28 C-0.35700647 25.28598706 -0.1123861 23.15153684 -0.09765625 20.1171875 C-0.09443359 18.95058594 -0.09121094 17.78398438 -0.08789062 16.58203125 C-0.07951172 15.35871094 -0.07113281 14.13539062 -0.0625 12.875 C-0.05798828 11.64394531 -0.05347656 10.41289062 -0.04882812 9.14453125 C-0.0370133 6.09630608 -0.02054028 3.04817686 0 0 Z " fill="#EA1D25" transform="translate(14,15)"/>
<path d="M0 0 C3.90127249 3.26618162 4.57149502 5.03133715 5.05859375 10.1484375 C5.0916608 11.64042278 5.11346154 13.13269294 5.125 14.625 C5.15787109 15.3675 5.19074219 16.11 5.22460938 16.875 C5.26439054 20.96884339 4.91010747 23.4948144 2.28515625 26.7265625 C-1.43869208 30.34401516 -3.11489378 30.37231848 -8.1953125 30.34765625 C-9.36191406 30.34443359 -10.52851562 30.34121094 -11.73046875 30.33789062 C-12.95378906 30.32951172 -14.17710938 30.32113281 -15.4375 30.3125 C-16.66855469 30.30798828 -17.89960937 30.30347656 -19.16796875 30.29882812 C-22.21619392 30.2870133 -25.26432314 30.27054028 -28.3125 30.25 C-28.42888426 26.18774179 -28.49981373 22.1259137 -28.5625 18.0625 C-28.59601563 16.91201172 -28.62953125 15.76152344 -28.6640625 14.57617188 C-28.67695312 13.46435547 -28.68984375 12.35253906 -28.703125 11.20703125 C-28.72407227 10.18585205 -28.74501953 9.16467285 -28.76660156 8.11254883 C-28.19271829 4.49492442 -26.82196793 2.86559546 -24.3125 0.25 C-17.93633791 -3.34067148 -6.52040282 -3.50144253 0 0 Z " fill="#FDF102" transform="translate(111.3125,16.75)"/>
<path d="M0 0 C1.95099609 -0.00773438 1.95099609 -0.00773438 3.94140625 -0.015625 C7.10579413 0.22479777 8.81107522 0.56588029 11.4375 2.25 C7.02283357 3.72155548 2.46080659 3.07250565 -2.13867188 2.68359375 C-5.38051744 2.56405247 -7.64764956 2.65624081 -10.41210938 4.45043945 C-14.48887536 8.52902759 -15.27176562 12.41653043 -15.44482422 18.05834961 C-15.44240723 19.09096924 -15.43999023 20.12358887 -15.4375 21.1875 C-15.47875 24.508125 -15.52 27.82875 -15.5625 31.25 C-6.6525 30.92 2.2575 30.59 11.4375 30.25 C9.4375 32.25 9.4375 32.25 6.82373047 32.47705078 C5.74494629 32.46657715 4.66616211 32.45610352 3.5546875 32.4453125 C2.38808594 32.43886719 1.22148438 32.43242188 0.01953125 32.42578125 C-1.81544922 32.40064453 -1.81544922 32.40064453 -3.6875 32.375 C-4.91855469 32.36597656 -6.14960937 32.35695312 -7.41796875 32.34765625 C-10.46633815 32.32402548 -13.51432382 32.29108054 -16.5625 32.25 C-16.67888426 28.18774179 -16.74981373 24.1259137 -16.8125 20.0625 C-16.84601563 18.91201172 -16.87953125 17.76152344 -16.9140625 16.57617188 C-16.92695312 15.46435547 -16.93984375 14.35253906 -16.953125 13.20703125 C-16.97407227 12.18585205 -16.99501953 11.16467285 -17.01660156 10.11254883 C-16.44275825 6.49517634 -15.07099263 4.86606142 -12.5625 2.25 C-8.47370253 -0.07844041 -4.64117239 -0.01843564 0 0 Z " fill="#FBEE18" transform="translate(99.5625,14.75)"/>
</svg>
